PathFileType	4	(X/Y/Z)	C:\Users\Basilio\Documents\Thesis Gigler\squatting_fais\c3dfiles\044\SLS_back_pre2\markers_experimental.trc
DataRate	CameraRate	NumFrames	NumMarkers	Units	OrigDataRate	OrigDataStartFrame	OrigNumFrames
200.000000	200.000000	4	63	mm	200.000000	905	1449
Frame#	Time	FHD			LBHD			RBHD			C7			T10			LSHO			LUUPA			LMUPA			LDUPA			LLEP			LMEP			LUL			LRFIN			RSHO			RUPA1			RMUPA			RDUPA			RLEP			RMEP			RUL			LASI			RASI			USACR			LSACR			RSACR			LTHI1			LTHI2			LTHI3			LTHI4			LLFC			LMFC			LTIB1			LTIB2			LTIB3			LTIB4			LLMAL			LMMAL			LHEE			LMT1			LMT2			LMT5			RTHI			RTHI2			RTHI3			RTHI4			RLFC			RMFC			RTIB1			RTIB2			RTIB3			RTIB4			RLMAL			RMMAL			RHEE			RMT1			RMT2			RMT5			RUFIN			CLAV			LRAD			RRAD			*61			*62			
		X1	Y1	Z1	X2	Y2	Z2	X3	Y3	Z3	X4	Y4	Z4	X5	Y5	Z5	X6	Y6	Z6	X7	Y7	Z7	X8	Y8	Z8	X9	Y9	Z9	X10	Y10	Z10	X11	Y11	Z11	X12	Y12	Z12	X13	Y13	Z13	X14	Y14	Z14	X15	Y15	Z15	X16	Y16	Z16	X17	Y17	Z17	X18	Y18	Z18	X19	Y19	Z19	X20	Y20	Z20	X21	Y21	Z21	X22	Y22	Z22	X23	Y23	Z23	X24	Y24	Z24	X25	Y25	Z25	X26	Y26	Z26	X27	Y27	Z27	X28	Y28	Z28	X29	Y29	Z29	X30	Y30	Z30	X31	Y31	Z31	X32	Y32	Z32	X33	Y33	Z33	X34	Y34	Z34	X35	Y35	Z35	X36	Y36	Z36	X37	Y37	Z37	X38	Y38	Z38	X39	Y39	Z39	X40	Y40	Z40	X41	Y41	Z41	X42	Y42	Z42	X43	Y43	Z43	X44	Y44	Z44	X45	Y45	Z45	X46	Y46	Z46	X47	Y47	Z47	X48	Y48	Z48	X49	Y49	Z49	X50	Y50	Z50	X51	Y51	Z51	X52	Y52	Z52	X53	Y53	Z53	X54	Y54	Z54	X55	Y55	Z55	X56	Y56	Z56	X57	Y57	Z57	X58	Y58	Z58	X59	Y59	Z59	X60	Y60	Z60	X61	Y61	Z61	X62	Y62	Z62	X63	Y63	Z63	

906	4.525	-55.66062927246095	1611.607543945313	-1023.587524414063	-190.7645874023438	1585.423950195313	-1101.387451171875	-234.3801879882813	1569.094604492188	-941.9791259765627	-264.0316467285157	1415.152954101563	-1029.7236328125	-362.6093750000001	1140.918701171875	-989.6456298828127	-175.4479522705078	1418.97412109375	-1167.734619140625	-26.52946281433106	1413.382080078125	-1281.641845703125	4.719265460968018	1426.408325195313	-1243.926025390625	41.04671859741212	1417.13037109375	-1290.748046875	100.5857315063477	1423.675903320313	-1285.66943359375	103.1079483032227	1346.389038085938	-1275.998779296875	354.0541076660157	1466.291137695313	-1157.752197265625	348.0530090332032	1484.630004882813	-1055.316650390625	-180.5661926269532	1421.26220703125	-882.2891235351565	-39.13057327270509	1423.295166015625	-771.8161621093752	-8.723295211791994	1435.51904296875	-810.8709716796877	29.71716690063477	1428.964965820313	-765.0214843750001	91.28081512451173	1437.036743164063	-771.934020996094	98.41963195800784	1355.50244140625	-777.794616699219	340.6851501464844	1474.15771484375	-900.4445800781252	-284.7019348144532	907.7081298828127	-1083.658569335938	-279.1161499023438	882.9498291015627	-869.1727294921877	-420.1575317382814	1005.928161621094	-958.162780761719	-441.3338317871095	980.3765258789065	-985.2138671875002	-431.6446228027345	977.5327148437502	-929.423767089844	-302.1839599609376	715.3673095703126	-1152.818115234375	-230.8995208740235	669.0625000000001	-1147.711059570313	-192.7615661621094	694.2434692382814	-1136.73681640625	-226.001693725586	609.6431274414064	-1131.921997070313	-141.8793487548828	487.6370544433595	-1101.716430664063	-145.9904174804688	491.161590576172	-983.7268676757815	-171.5083312988282	322.7423400878907	-1011.460754394531	-208.1790161132813	282.2364807128907	-1080.751953125	-182.2107238769532	273.0047912597657	-1040.795532226563	-229.3379364013672	210.8288726806641	-1007.274291992188	-318.7270202636719	118.5023651123047	-1055.29638671875	-300.0942077636719	127.7299346923828	-966.8911743164065	-387.6594238281251	96.99713134765628	-1008.047973632813	-180.6689147949219	56.6548194885254	-980.7688598632815	-177.7835540771485	62.45825576782228	-1027.156982421875	-214.2278900146485	51.70602035522462	-1075.027587890625	-348.0754699707032	622.6536254882814	-801.1206665039065	-293.8782043457032	581.2017211914064	-802.9848632812502	-263.4791564941407	589.8434448242189	-811.291442871094	-301.2117919921876	498.5164794921876	-824.5422363281252	-310.5856018066407	423.9479064941407	-852.9654541015627	-312.0420837402344	426.4008789062501	-969.3777465820315	-403.4561767578126	342.0690002441407	-895.2688598632815	-495.4877319335939	395.8934326171876	-864.087829589844	-489.2646484375001	352.2661132812501	-880.0532226562502	-531.7916870117189	331.3326721191407	-912.1992797851565	-698.2159423828126	359.8583984375001	-921.6834716796877	-670.4060668945314	342.7716369628907	-1002.679748535156	-734.3532714843751	408.6151733398439	-980.1704101562502	-703.2253417968751	202.3966522216797	-997.1761474609377	-712.9312133789064	192.3692626953126	-960.3191528320315	-753.1499023437501	223.9586639404297	-918.4227294921877	341.2909240722657	1456.727661132813	-1017.298828125	nan	nan	nan	nan	nan	nan	nan	nan	nan	nan	nan	nan	nan	nan	nan	
907	4.53	-56.14387512207033	1613.050048828125	-1023.612670898438	-191.1837005615235	1586.921752929688	-1101.4296875	-234.832504272461	1570.619506835938	-941.9301757812502	-264.2564086914063	1416.325927734375	-1029.755859375	-362.5524291992188	1142.25830078125	-989.7202758789065	-175.7579650878907	1420.544921875	-1167.8798828125	-26.69013786315919	1415.02197265625	-1281.618896484375	4.586523056030274	1428.0419921875	-1243.927978515625	41.00289535522462	1418.577270507813	-1290.798583984375	100.3187713623047	1425.40380859375	-1285.570190429688	103.0312271118164	1347.963134765625	-1275.912353515625	353.6581115722657	1467.533081054688	-1157.505615234375	347.6676330566407	1486.226806640625	-1055.101806640625	-180.3948822021485	1422.59375	-882.3801269531252	-39.28206634521485	1424.359375	-771.7132568359377	-8.803888320922853	1437.039184570313	-810.8078613281252	29.54332733154298	1430.330932617188	-764.9864501953126	91.10667419433595	1438.505249023438	-771.9921875000002	98.25226593017581	1356.760498046875	-776.8126220703127	340.4793701171876	1475.5107421875	-900.2543945312502	-284.2785034179688	908.7723388671877	-1083.667114257813	-278.6039733886719	884.533874511719	-869.3577270507815	-419.7999267578126	1007.1298828125	-958.222595214844	-440.8258666992189	981.6901855468752	-985.3907470703127	-431.3547668457032	978.846862792969	-929.4590454101565	-302.1960449218751	716.1029052734376	-1152.763427734375	-230.9017944335938	669.7478637695314	-1147.808227539063	-193.5972900390626	695.0908813476564	-1136.864501953125	-226.3513488769532	610.3988037109376	-1131.768188476563	-142.3144836425782	487.932342529297	-1101.806762695313	-146.5017700195313	491.3433837890626	-983.7080078125002	-171.6742553710938	322.7885742187501	-1011.450622558594	-209.1613159179688	281.9313659667969	-1080.906982421875	-182.5899505615235	273.1551818847657	-1040.924194335938	-229.3949279785157	210.8280487060547	-1007.31494140625	-318.6851501464844	118.5132217407227	-1055.290283203125	-300.1344299316407	127.7486877441407	-966.894470214844	-387.5472412109376	97.06601715087893	-1008.059204101563	-180.6394653320313	56.6515235900879	-980.7651367187502	-177.7631530761719	62.43116378784181	-1027.22412109375	-214.1946716308594	51.69218063354494	-1075.073974609375	-347.3351745605469	624.1409912109376	-800.8950805664065	-293.0913696289063	582.2272338867189	-802.3499755859377	-262.5935058593751	591.2230834960939	-812.0531005859377	-299.9975280761719	499.5202636718751	-824.2346191406252	-309.3972473144532	425.4075012207032	-853.2603759765627	-311.2123718261719	428.0558166503907	-969.2305908203127	-402.8046264648439	343.1690368652344	-894.9477539062502	-494.4247131347657	396.8147583007814	-863.8828125000002	-488.3390502929689	353.4041748046876	-879.9299316406252	-530.6950073242189	332.3120422363282	-912.277282714844	-697.6167602539064	361.1491699218751	-921.9924316406252	-669.4685058593751	343.5584716796876	-1002.763854980469	-733.3612060546876	409.642547607422	-980.3452148437502	-702.0186767578126	203.2624664306641	-997.0697021484377	-711.8067626953126	192.8672637939454	-959.9683227539065	-752.0593872070314	224.0329284667969	-918.3442993164065	341.0198974609376	1457.867431640625	-1017.105529785156	nan	nan	nan	nan	nan	nan	nan	nan	nan	nan	nan	nan	nan	nan	nan	
908	4.535	-56.24398422241212	1614.512084960938	-1023.804626464844	-191.6055908203125	1588.342895507813	-1101.377197265625	-235.2992095947266	1571.516723632813	-941.491394042969	-264.3877868652344	1417.56396484375	-1029.533935546875	-362.4975280761719	1143.229858398438	-989.8200683593752	-176.0361938476563	1421.776245117188	-1167.88427734375	-27.01033592224122	1416.213623046875	-1281.553344726563	4.361012935638429	1429.408935546875	-1243.83349609375	40.7650260925293	1420.112548828125	-1290.690673828125	100.814811706543	1426.341918945313	-1285.585693359375	102.9196090698242	1349.321166992188	-1275.919189453125	353.5059204101563	1469.168701171875	-1157.530639648438	347.4086914062501	1487.04248046875	-1054.784301757813	-181.0060424804688	1423.687744140625	-882.189147949219	-39.77962875366212	1426.197021484375	-771.9801025390627	-9.138438224792482	1438.6201171875	-811.0425415039065	29.28085708618165	1431.603149414063	-764.9107666015626	90.79196929931642	1439.949462890625	-771.7695312500002	97.73522949218753	1358.675903320313	-777.6837158203127	340.3103332519532	1476.783813476563	-900.162292480469	-284.0355224609376	909.8336181640627	-1083.664916992188	-278.1634826660157	885.9168701171877	-869.4656982421877	-419.3622131347657	1008.061950683594	-958.2983398437502	-440.4393005371095	982.4829101562502	-985.451599121094	-431.7963256835939	979.448181152344	-929.199157714844	-302.1016235351563	716.7940673828126	-1152.811889648438	-230.8698883056641	670.3609008789064	-1147.858276367188	-193.6104736328126	695.6802978515626	-1136.864624023438	-226.9604187011719	610.4646606445314	-1131.952270507813	-142.9649658203125	488.3118591308595	-1101.854858398438	-146.9751434326172	491.6598205566407	-983.776794433594	-172.0189361572266	323.0048828125001	-1011.617126464844	-209.4322052001954	282.0671386718751	-1080.992553710938	-182.8094482421875	273.3366699218751	-1041.030639648438	-229.5071716308594	210.9835205078126	-1007.455810546875	-318.7192077636719	118.5290145874024	-1055.379516601563	-300.1922912597657	127.8108978271485	-966.9329223632815	-387.6094665527345	97.11083984375003	-1008.02685546875	-180.6753234863282	56.64097595214845	-980.8318481445315	-177.6871948242188	62.30099105834962	-1027.10693359375	-214.2232055664063	51.57324981689455	-1075.050537109375	-346.4907531738282	625.3416137695314	-800.7525634765627	-292.2064208984376	583.5131835937501	-802.3822021484377	-261.8150024414063	592.7788085937501	-812.0701904296877	-299.4078979492188	501.0899963378907	-824.4387207031252	-308.8322143554688	426.8160400390626	-853.5789184570315	-310.2975463867188	429.3357238769532	-969.0186767578127	-401.652313232422	344.3611755371094	-894.6042480468752	-493.758758544922	397.9691772460939	-863.9451293945315	-487.4205017089845	354.4399108886719	-879.582702636719	-530.0278930664064	333.4603271484376	-911.993835449219	-696.2741088867189	361.5317687988282	-921.6055297851565	-668.2176513671876	343.7073364257813	-1002.748718261719	-732.5625000000001	410.3551330566407	-980.2329711914065	-700.9088134765626	204.0583648681641	-997.0442504882815	-710.7879638671876	193.5116577148438	-959.714538574219	-751.3607788085939	225.6144256591797	-918.1375122070315	340.7918090820313	1459.216552734375	-1016.956726074219	nan	nan	nan	nan	nan	nan	nan	nan	nan	nan	nan	nan	nan	nan	nan	
909	4.54	-56.49950408935548	1616.114868164063	-1023.773071289063	-191.7378387451172	1589.804809570313	-1101.374755859375	-235.8088836669922	1573.18408203125	-941.6912231445315	-264.8468627929688	1418.982421875	-1029.752075195313	-362.3717956542969	1144.501098632813	-989.921081542969	-176.267807006836	1423.30712890625	-1167.978271484375	-27.16540908813477	1417.799194335938	-1281.44921875	4.181392192840577	1430.7646484375	-1243.775512695313	40.61492156982423	1421.601196289063	-1290.538940429688	100.5451354980469	1427.9287109375	-1285.46142578125	102.4900283813477	1351.003173828125	-1275.750122070313	353.4618530273438	1470.27685546875	-1157.242797851563	347.2391662597657	1489.026977539063	-1054.708618164063	-181.0581665039063	1425.413818359375	-882.3382568359377	-39.88219833374024	1427.0673828125	-771.6372070312502	-9.211442947387697	1439.700073242188	-810.7149047851565	28.93897819519044	1433.101684570313	-764.7831420898439	90.50405120849611	1441.238403320313	-771.686706542969	97.56193542480472	1359.477416992188	-776.3889160156252	340.0624389648438	1478.286987304688	-899.9671020507815	-283.5073547363282	911.157653808594	-1083.666137695313	-277.7883605957032	887.0718383789065	-869.3593750000002	-419.1496582031251	1009.318603515625	-958.427917480469	-440.1830139160157	983.5797119140627	-985.4995117187502	-430.7980041503907	981.111511230469	-929.586120605469	-302.0695495605469	717.6379394531251	-1152.835327148438	-230.9492340087891	670.8656005859376	-1147.884643554688	-193.0436401367188	695.8817749023439	-1136.963134765625	-227.0653228759766	611.1199340820314	-1131.912353515625	-143.644287109375	488.7973022460939	-1101.897583007813	-147.2586669921875	491.7399291992189	-983.8234863281252	-172.4222412109375	323.2820129394532	-1011.711059570313	-209.6121826171876	282.2284851074219	-1081.1201171875	-183.0390930175782	273.7552490234376	-1041.20849609375	-229.6308593750001	211.0155487060547	-1007.540222167969	-318.7090454101563	118.4901504516602	-1055.417236328125	-300.1810607910157	127.7317810058594	-966.9590454101565	-387.611297607422	97.07192993164065	-1008.07568359375	-180.6741638183594	56.64326477050783	-980.824401855469	-177.6720733642578	62.25419235229494	-1027.140258789063	-214.2232055664063	51.57324981689455	-1075.050537109375	-345.8443298339844	627.0365600585939	-800.908142089844	-291.4770202636719	584.9509887695314	-802.328796386719	-261.1249694824219	594.1734008789064	-811.331237792969	-298.6208801269532	502.4540405273439	-824.365905761719	-307.7430114746094	427.9688110351564	-853.192077636719	-309.9897155761719	430.633514404297	-969.4417114257815	-400.5648193359376	345.2903442382813	-894.8376464843752	-492.8067321777345	399.004608154297	-863.7922973632815	-486.4121093750001	355.5979003906251	-879.6055908203127	-528.7866821289064	334.5783386230469	-911.9497070312502	-695.5474243164064	362.5075683593751	-921.6738281250002	-667.1716308593751	344.5414123535157	-1002.638793945313	-731.8102416992189	411.0957031250001	-980.0681762695315	-699.9344482421876	204.6023406982422	-996.9631958007815	-709.4543457031251	194.6410217285157	-959.5534667968752	-749.8294677734376	225.9788055419922	-918.2832031250002	340.5596618652344	1460.574951171875	-1016.800659179688	nan	nan	nan	nan	nan	nan	nan	nan	nan	nan	nan	nan	nan	nan	nan	
